<?xml version="1.0" encoding="utf-8"?>
<!-- Generator: Adobe Illustrator 22.1.0, SVG Export Plug-In . SVG Version: 6.00 Build 0)  -->
<svg version="1.1" id="Layer_1" xmlns="http://www.w3.org/2000/svg" xmlns:xlink="http://www.w3.org/1999/xlink" x="0px" y="0px"
	 viewBox="0 0 750 750" style="enable-background:new 0 0 750 750;" xml:space="preserve">
<style type="text/css">
	.st0{fill:none;}
	.st1{enable-background:new    ;}
	.st2{fill:#606060;}
	.st3{fill:#333B46;}
</style>
<title>Artboard 47 copy 7</title>
<rect y="269.8" class="st0" width="750" height="95.8"/>
<g class="st1">
	<path class="st2" d="M283.1,204.3l27.6,80.5h-9.8l-6.6-19.9h-31.6l-6.4,19.9h-9.8l27.6-80.5H283.1z M265.3,256.7h26.3l-13.1-40.3
		L265.3,256.7z"/>
	<path class="st2" d="M318.4,255.4v-51.2h9.1v49.6c0,16,6.4,24.2,18.2,24.2s18.2-8.2,18.2-24.2v-49.6h9.1v51.2
		c0,18.7-10,30.7-27.3,30.7S318.4,274.2,318.4,255.4z"/>
	<path class="st2" d="M436.8,284.8H389v-80.5h9.1v72.3h38.8V284.8z"/>
	<path class="st2" d="M475.9,204.3l27.6,80.5h-9.8l-6.6-19.9h-31.6l-6.4,19.9h-9.8l27.6-80.5H475.9z M458.2,256.7h26.3l-13.1-40.3
		L458.2,256.7z"/>
	<path class="st2" d="M198.9,413.8l-27-80.5h9.8l21.9,66.1l21.9-66.1h9.8l-27,80.5H198.9z"/>
	<path class="st2" d="M253.9,413.8h-9.1v-80.5h9.1V413.8z"/>
	<path class="st2" d="M280,380v33.8h-9.1v-80.5h27.9c12.5,0,25.1,7.6,25.1,23.3c0,12.4-7.7,19.8-17.1,22.3l20.1,34.8H317L297.6,380
		H280z M297.4,371.8c9.9,0,17.4-5.1,17.4-15.2c0-10.1-7.5-15.2-17.4-15.2H280v30.4H297.4z"/>
	<path class="st2" d="M384.6,333.3v8.2h-23v72.3h-9.1v-72.3h-23v-8.2H384.6z"/>
	<path class="st2" d="M394,384.4v-51.2h9.1v49.6c0,16,6.4,24.2,18.2,24.2s18.2-8.2,18.2-24.2v-49.6h9.1v51.2
		c0,18.7-10,30.7-27.3,30.7S394,403.2,394,384.4z"/>
	<path class="st2" d="M492.8,333.3l27.6,80.5h-9.8l-6.6-19.9h-31.6l-6.4,19.9h-9.8l27.6-80.5H492.8z M475.1,385.7h26.3l-13.1-40.3
		L475.1,385.7z"/>
	<path class="st2" d="M577.5,413.8h-47.8v-80.5h9.1v72.3h38.8V413.8z"/>
</g>
<g id="Nuevo_símbolo_5">
	<g>
		<path class="st3" d="M233.2,557.4h3.3v25.4h13.2v2.7h-16.5V557.4z"/>
		<path class="st3" d="M514.8,531.4v3.3H236.4v13.2h-3.3v-16.5H514.8z"/>
		<path class="st3" d="M277.3,577l-4.7-11.5l-4.7,11.5l-0.9,2.3l-2.5,6.2h-3l9.8-23.5h2.6l9.8,23.5h-2.9l-2.5-6.2"/>
		<path class="st3" d="M295.9,561.8h2.7v14.8c0,2,0.6,3.6,1.8,4.8c1.2,1.2,2.8,1.8,4.8,1.8c2,0,3.6-0.6,4.8-1.8
			c1.2-1.2,1.8-2.8,1.8-4.8v-14.8h2.8v14.7c0,2.9-0.9,5.1-2.6,6.8c-1.7,1.6-4,2.5-6.9,2.5s-5.2-0.8-6.9-2.5
			c-1.7-1.6-2.5-3.9-2.5-6.8V561.8z"/>
		<path class="st3" d="M343,585.5l-6.2-10.2h-4.4v10.2h-2.8V562h9.2c1.9,0,3.5,0.6,4.8,1.8c1.3,1.2,1.9,2.8,1.9,4.9
			c0,2-0.6,3.6-1.9,4.7c-1,1-2.3,1.5-3.7,1.7l6.5,10.4H343z M332.4,564.2v8.7h5.9c1.3,0,2.3-0.4,3.1-1.2s1.2-1.8,1.2-3.2
			c0-1.3-0.4-2.4-1.2-3.2s-1.9-1.2-3.1-1.2H332.4z"/>
		<path class="st3" d="M403.6,561.5c2.8,0,5.5,1,7.9,3l-1.8,2.2c-1.8-1.7-3.8-2.6-6.1-2.6c-1.6,0-2.9,0.4-3.7,1.1
			c-0.8,0.6-1.1,1.5-1.1,2.7c0,1.1,0.5,1.9,1.4,2.5c0.8,0.5,2.2,1,4.2,1.6c2.3,0.6,3.9,1.3,4.9,2c1.8,1.3,2.7,3,2.7,5.1
			c0,2.1-0.8,3.7-2.5,5c-1.6,1.2-3.6,1.8-6,1.8c-3.3,0-6.3-1.1-9-3.3l1.8-2.2c2.2,2,4.6,2.9,7.2,2.9c1.7,0,3-0.3,3.9-1
			c1-0.8,1.4-1.8,1.4-3c0-1.2-0.5-2.1-1.5-2.8c-0.8-0.5-2.1-1.1-4.1-1.6c-2.4-0.7-4-1.3-5-1.9c-1.8-1.3-2.7-2.9-2.7-4.9
			c0-1.9,0.7-3.5,2.1-4.7C399.4,562.2,401.3,561.5,403.6,561.5z"/>
		<path class="st3" d="M436.3,561.5c2.8,0,5.5,1,7.9,3l-1.8,2.2c-1.8-1.7-3.8-2.6-6.1-2.6c-1.6,0-2.9,0.4-3.7,1.1
			c-0.8,0.6-1.1,1.5-1.1,2.7c0,1.1,0.5,1.9,1.4,2.5c0.8,0.5,2.2,1,4.2,1.6c2.3,0.6,3.9,1.3,4.9,2c1.8,1.3,2.7,3,2.7,5.1
			c0,2.1-0.8,3.7-2.5,5c-1.6,1.2-3.6,1.8-6,1.8c-3.3,0-6.3-1.1-9-3.3l1.8-2.2c2.2,2,4.6,2.9,7.2,2.9c1.7,0,3-0.3,3.9-1
			c1-0.8,1.4-1.8,1.4-3c0-1.2-0.5-2.1-1.5-2.8c-0.8-0.5-2.1-1.1-4.1-1.6c-2.4-0.7-4-1.3-5-1.9c-1.8-1.3-2.7-2.9-2.7-4.9
			c0-1.9,0.7-3.5,2.1-4.7C432.1,562.2,434,561.5,436.3,561.5z"/>
		<path class="st3" d="M459.7,562h2.7v23.5h-2.7V562z"/>
		<rect x="513.6" y="531.4" class="st3" width="3.3" height="54.1"/>
		<path class="st3" d="M375.4,577l-4.7-11.5L366,577l-0.9,2.3l-2.5,6.2h-3l9.8-23.5h2.6l9.8,23.5h-2.9l-2.5-6.2"/>
		<path class="st3" d="M491.8,577l-4.7-11.5l-4.7,11.5l-0.9,2.3l-2.5,6.2h-3l9.8-23.5h2.6l9.8,23.5h-2.9l-2.5-6.2"/>
		
			<rect x="511.9" y="580.5" transform="matrix(6.123234e-17 -1 1 6.123234e-17 -70.2453 1097.3873)" class="st3" width="3.3" height="6.5"/>
	</g>
</g>
</svg>
